<?xml version="1.0" encoding="UTF-8" standalone="no"?>
<!-- Created with Inkscape (http://www.inkscape.org/) -->

<svg
   xmlns:dc="http://purl.org/dc/elements/1.1/"
   xmlns:cc="http://creativecommons.org/ns#"
   xmlns:rdf="http://www.w3.org/1999/02/22-rdf-syntax-ns#"
   xmlns:svg="http://www.w3.org/2000/svg"
   xmlns="http://www.w3.org/2000/svg"
   xmlns:sodipodi="http://sodipodi.sourceforge.net/DTD/sodipodi-0.dtd"
   xmlns:inkscape="http://www.inkscape.org/namespaces/inkscape"
   width="249.53014"
   height="196.561"
   id="svg2"
   version="1.1"
   inkscape:version="0.47 r22583"
   sodipodi:docname="logo.eps">
  <defs
     id="defs4">
    <inkscape:perspective
       sodipodi:type="inkscape:persp3d"
       inkscape:vp_x="0 : 526.18109 : 1"
       inkscape:vp_y="0 : 1000 : 0"
       inkscape:vp_z="744.09448 : 526.18109 : 1"
       inkscape:persp3d-origin="372.04724 : 350.78739 : 1"
       id="perspective10" />
    <inkscape:perspective
       id="perspective2846"
       inkscape:persp3d-origin="0.5 : 0.33333333 : 1"
       inkscape:vp_z="1 : 0.5 : 1"
       inkscape:vp_y="0 : 1000 : 0"
       inkscape:vp_x="0 : 0.5 : 1"
       sodipodi:type="inkscape:persp3d" />
    <inkscape:perspective
       id="perspective2874"
       inkscape:persp3d-origin="0.5 : 0.33333333 : 1"
       inkscape:vp_z="1 : 0.5 : 1"
       inkscape:vp_y="0 : 1000 : 0"
       inkscape:vp_x="0 : 0.5 : 1"
       sodipodi:type="inkscape:persp3d" />
    <inkscape:perspective
       id="perspective2900"
       inkscape:persp3d-origin="0.5 : 0.33333333 : 1"
       inkscape:vp_z="1 : 0.5 : 1"
       inkscape:vp_y="0 : 1000 : 0"
       inkscape:vp_x="0 : 0.5 : 1"
       sodipodi:type="inkscape:persp3d" />
    <inkscape:perspective
       id="perspective5683"
       inkscape:persp3d-origin="99.839996 : 68.24 : 1"
       inkscape:vp_z="199.67999 : 102.36 : 1"
       inkscape:vp_y="0 : 1000 : 0"
       inkscape:vp_x="0 : 102.36 : 1"
       sodipodi:type="inkscape:persp3d" />
  </defs>
  <sodipodi:namedview
     id="base"
     pagecolor="#ffffff"
     bordercolor="#666666"
     borderopacity="1.0"
     inkscape:pageopacity="0.0"
     inkscape:pageshadow="2"
     inkscape:zoom="1.4"
     inkscape:cx="45.708403"
     inkscape:cy="159.48105"
     inkscape:document-units="px"
     inkscape:current-layer="layer1"
     showgrid="false"
     inkscape:window-width="1280"
     inkscape:window-height="1002"
     inkscape:window-x="1272"
     inkscape:window-y="-8"
     inkscape:window-maximized="1"
     inkscape:object-nodes="true"
     inkscape:snap-nodes="true" />
  <metadata
     id="metadata7">
    <rdf:RDF>
      <cc:Work
         rdf:about="">
        <dc:format>image/svg+xml</dc:format>
        <dc:type
           rdf:resource="http://purl.org/dc/dcmitype/StillImage" />
        <dc:title></dc:title>
      </cc:Work>
    </rdf:RDF>
  </metadata>
  <g
     inkscape:label="Ebene 1"
     inkscape:groupmode="layer"
     id="layer1"
     transform="translate(-167.15234,-115.4955)">
    <g
       id="g2865"
       inkscape:export-xdpi="90"
       inkscape:export-ydpi="90"
       style="fill:#000000;fill-opacity:1">
      <text
         sodipodi:linespacing="125%"
         id="text2816"
         y="288.07648"
         x="170"
         style="font-size:40px;font-style:normal;font-weight:normal;line-height:125%;fill:#000000;fill-opacity:1;stroke:none;font-family:Bitstream Vera Sans"
         xml:space="preserve"><tspan
           style="font-size:32px;font-style:italic;font-variant:normal;font-weight:normal;font-stretch:normal;text-align:start;line-height:125%;writing-mode:lr-tb;text-anchor:start;fill:#000000;font-family:jamaistevie;-inkscape-font-specification:jamaistevie Italic;fill-opacity:1"
           y="288.07648"
           x="170"
           id="tspan2818"
           sodipodi:role="line">Funky</tspan></text>
      <text
         sodipodi:linespacing="125%"
         id="text2820"
         y="290.21933"
         x="276.42856"
         style="font-size:40px;font-style:normal;font-weight:normal;line-height:125%;fill:#000000;fill-opacity:1;stroke:none;font-family:Bitstream Vera Sans"
         xml:space="preserve"><tspan
           style="font-size:56px;font-style:normal;font-variant:normal;font-weight:normal;font-stretch:normal;text-align:start;line-height:125%;writing-mode:lr-tb;text-anchor:start;fill:#000000;font-family:Cheap Fire;-inkscape-font-specification:Cheap Fire;fill-opacity:1"
           y="290.21933"
           x="276.42856"
           id="tspan2822"
           sodipodi:role="line">Imp</tspan></text>
      <flowRoot
         style="font-size:40px;font-style:normal;font-weight:normal;fill:#000000;fill-opacity:1;stroke:none;font-family:Bitstream Vera Sans"
         id="flowRoot2826"
         xml:space="preserve"><flowRegion
           id="flowRegion2828"><rect
             style="fill:#000000;fill-opacity:1"
             y="353.79074"
             x="-128.21428"
             height="223.92857"
             width="247.14285"
             id="rect2830" /></flowRegion><flowPara
           id="flowPara2832" /></flowRoot>      <g
         style="fill:#000000;fill-opacity:1"
         transform="translate(218.16083,114.5375)"
         id="g5595">
        <path
           style="fill-rule:evenodd;fill:#000000;fill-opacity:1"
           clip-rule="evenodd"
           d="m 133.44,25.68 c 0.937,0.023 1.746,0.173 1.92,0.96 -0.451,0.276 -1.91,-0.044 -1.92,-0.96 z"
           id="path5597" />
        <path
           style="fill-rule:evenodd;fill:#000000;fill-opacity:1"
           clip-rule="evenodd"
           d="m 79.44,52.56 c 0.827,0.922 -1.854,1.651 -2.4,1.2 0.154,-1.046 2.365,-0.035 2.4,-1.2 z"
           id="path5599" />
        <path
           style="fill-rule:evenodd;fill:#000000;fill-opacity:1"
           clip-rule="evenodd"
           d="m 79.68,54 c 0.67,0.609 -0.773,1.133 -1.68,0.96 0.122,-0.758 1.371,-0.389 1.68,-0.96 z"
           id="path5601" />
        <path
           style="fill-rule:evenodd;fill:#000000;fill-opacity:1"
           clip-rule="evenodd"
           d="m 89.28,55.92 c 0.787,1.354 -1.338,1.857 -1.68,2.88 0.477,0.483 1.135,0.785 1.44,1.44 0.037,0.597 -0.377,0.743 -0.48,1.2 -1.472,0.192 -1.607,-0.953 -2.88,-0.96 -0.275,-2.995 2.548,-2.892 3.6,-4.56 z"
           id="path5603" />
        <path
           style="fill-rule:evenodd;fill:#000000;fill-opacity:1"
           clip-rule="evenodd"
           d="m 101.04,61.2 c 0.477,0.415 0.21,2.117 -0.48,2.16 0.061,-0.819 0.607,-1.153 0.48,-2.16 z"
           id="path5605" />
        <path
           style="fill-rule:evenodd;fill:#000000;fill-opacity:1"
           clip-rule="evenodd"
           d="m 98.16,61.44 c 0.24,0 0.48,0 0.72,0 0.336,4.736 -2.512,6.288 -3.36,9.84 -1.301,-3.555 3.375,-5.255 2.64,-9.84 z"
           id="path5607" />
        <path
           style="fill-rule:evenodd;fill:#000000;fill-opacity:1"
           clip-rule="evenodd"
           d="m 92.16,62.64 c 0.637,0.731 -0.341,1.889 -0.48,2.64 -0.637,-0.731 0.341,-1.889 0.48,-2.64 z"
           id="path5609" />
        <path
           style="fill-rule:evenodd;fill:#000000;fill-opacity:1"
           clip-rule="evenodd"
           d="m 102,62.64 c 0.408,0.816 0.057,2.93 -0.72,3.36 0.045,-1.315 0.445,-2.275 0.72,-3.36 z"
           id="path5611" />
        <path
           style="fill-rule:evenodd;fill:#000000;fill-opacity:1"
           clip-rule="evenodd"
           d="m 92.64,64.08 c 0.549,2.439 0.942,6.211 1.2,8.64 -1.452,-1.945 -1.828,-5.893 -1.2,-8.64 z"
           id="path5613" />
        <path
           style="fill-rule:evenodd;fill:#000000;fill-opacity:1"
           clip-rule="evenodd"
           d="m 103.68,64.32 c 0.777,0.307 0.222,3.196 -0.479,3.6 -0.032,-1.391 0.451,-2.268 0.479,-3.6 z"
           id="path5615" />
        <path
           style="fill-rule:evenodd;fill:#000000;fill-opacity:1"
           clip-rule="evenodd"
           d="m 104.88,64.32 c 0.786,0.388 0.177,2.885 0,3.84 -1.059,-0.517 0.177,-2.631 0,-3.84 z"
           id="path5617" />
        <path
           style="fill-rule:evenodd;fill:#000000;fill-opacity:1"
           clip-rule="evenodd"
           d="m 111.12,65.28 c 0.471,-0.116 0.772,1.101 0.24,1.2 -0.865,0.23 -0.425,-1.036 -0.24,-1.2 z"
           id="path5619" />
        <path
           style="fill-rule:evenodd;fill:#000000;fill-opacity:1"
           clip-rule="evenodd"
           d="m 106.08,65.52 c 0.313,0.804 0.19,2.146 0,2.88 -1.094,-0.284 -0.248,-2.379 0,-2.88 z"
           id="path5621" />
        <path
           style="fill-rule:evenodd;fill:#000000;fill-opacity:1"
           clip-rule="evenodd"
           d="m 107.28,65.52 c 0.469,0.642 0.266,2.657 -0.48,2.88 -0.043,-1.163 0.19,-2.049 0.48,-2.88 z"
           id="path5623" />
        <path
           style="fill-rule:evenodd;fill:#000000;fill-opacity:1"
           clip-rule="evenodd"
           d="m 109.92,65.52 c 0.347,0.058 0.558,1.975 -0.24,1.68 0.003,-0.638 -0.091,-1.37 0.24,-1.68 z"
           id="path5625" />
        <path
           style="fill-rule:evenodd;fill:#000000;fill-opacity:1"
           clip-rule="evenodd"
           d="m 108.48,66 c 0.757,-0.309 0.757,1.989 0,1.68 0,-0.56 0,-1.12 0,-1.68 z"
           id="path5627" />
        <path
           style="fill-rule:evenodd;fill:#000000;fill-opacity:1"
           clip-rule="evenodd"
           d="m 125.04,66.72 c 2.066,2.183 4.122,5.625 3.6,9.6 -1.473,-0.475 -0.545,-1.854 -0.72,-2.88 -0.425,-2.487 -2.111,-4.519 -2.88,-6.72 z"
           id="path5629" />
        <path
           style="fill-rule:evenodd;fill:#000000;fill-opacity:1"
           clip-rule="evenodd"
           d="m 112.32,66.96 c -0.66,2.48 0.432,5.071 2.16,6.48 -0.547,0.174 0.221,1.661 -0.721,1.44 0.003,0.477 0.655,0.305 0.48,0.96 -0.592,0.032 -1.156,0.037 -1.44,-0.24 1.025,-0.827 -0.131,-1.019 0.72,-1.68 -1.421,-1.614 -2.623,-4.497 -1.199,-6.96 z"
           id="path5631" />
        <path
           style="fill-rule:evenodd;fill:#000000;fill-opacity:1"
           clip-rule="evenodd"
           d="m 125.04,72.96 c 0.611,0.252 1.289,1.231 0.72,1.92 -0.924,0.061 -1.016,-1.505 -0.72,-1.92 z"
           id="path5633" />
        <path
           style="fill-rule:evenodd;fill:#000000;fill-opacity:1"
           clip-rule="evenodd"
           d="m 122.4,73.2 c 0.567,0.322 1.02,2.006 0.72,2.4 -0.822,-0.218 -0.575,-1.505 -0.72,-2.4 z"
           id="path5635" />
        <path
           style="fill-rule:evenodd;fill:#000000;fill-opacity:1"
           clip-rule="evenodd"
           d="m 120,73.44 c 0.915,0.145 1.03,2.033 0.72,2.64 -1.227,0.107 -0.542,-1.698 -0.72,-2.64 z"
           id="path5637" />
        <path
           style="fill-rule:evenodd;fill:#000000;fill-opacity:1"
           clip-rule="evenodd"
           d="m 113.76,77.04 c -0.729,0.01 -1.579,0.14 -1.439,-0.72 0.459,-0.432 1.477,-0.068 1.439,0.72 z"
           id="path5639" />
        <path
           style="fill-rule:evenodd;fill:#000000;fill-opacity:1"
           clip-rule="evenodd"
           d="m 111.6,77.28 c 0.758,0.043 1.432,0.169 1.44,0.96 -0.805,0.005 -1.6,0 -1.44,-0.96 z"
           id="path5641" />
        <path
           style="fill-rule:evenodd;fill:#000000;fill-opacity:1"
           clip-rule="evenodd"
           d="m 65.04,78.24 c 0.453,1.18 -1.68,1.835 -2.88,2.16 0.572,-1.108 2.03,-1.33 2.88,-2.16 z"
           id="path5643" />
        <path
           style="fill-rule:evenodd;fill:#000000;fill-opacity:1"
           clip-rule="evenodd"
           d="m 110.4,78.24 c 0.689,-0.049 1.219,0.061 1.439,0.48 0.064,0.965 -1.96,0.541 -1.439,-0.48 z"
           id="path5645" />
        <path
           style="fill-rule:evenodd;fill:#000000;fill-opacity:1"
           clip-rule="evenodd"
           d="m 108.96,79.2 c 0.604,0.197 1.286,0.314 1.2,1.2 -0.855,0.055 -1.255,-0.345 -1.2,-1.2 z"
           id="path5647" />
        <path
           style="fill-rule:evenodd;fill:#000000;fill-opacity:1"
           clip-rule="evenodd"
           d="m 106.8,80.16 c 0.548,0.572 1.797,0.443 1.92,1.44 -0.977,-0.143 -1.859,-0.382 -1.92,-1.44 z"
           id="path5649" />
        <path
           style="fill-rule:evenodd;fill:#000000;fill-opacity:1"
           clip-rule="evenodd"
           d="m 45.36,82.08 c 1.818,-0.055 4.542,1.056 6.24,1.92 -2.363,-0.357 -4.337,-1.103 -6.24,-1.92 z"
           id="path5651" />
        <path
           style="fill-rule:evenodd;fill:#000000;fill-opacity:1"
           clip-rule="evenodd"
           d="m 51.84,84 c 0.699,-0.709 1.67,0.11 2.64,0.24 1.77,0.236 4.258,-0.306 5.04,0.96 -2.286,0.26 -5.378,-0.682 -7.68,-1.2 z"
           id="path5653" />
        <path
           style="fill-rule:evenodd;fill:#000000;fill-opacity:1"
           clip-rule="evenodd"
           d="m 109.68,120.72 c -1.308,-0.108 -1.972,0.428 -3.359,0.24 0.338,-0.711 3.362,-1.445 3.359,-0.24 z"
           id="path5655" />
        <path
           style="fill-rule:evenodd;fill:#000000;fill-opacity:1"
           clip-rule="evenodd"
           d="m 102.48,126 c -2.033,0.858 -4.591,-0.355 -7.681,0 0.53,0.749 2.938,-0.379 3.12,0.72 -0.755,1.005 -3.13,-0.338 -4.8,0 -0.247,-0.807 0.746,-0.374 1.2,-0.48 -0.874,-0.966 -3.651,-0.029 -4.56,-0.96 2.695,-0.369 8.994,0.068 12.721,0.72 z"
           id="path5657" />
        <path
           style="fill-rule:evenodd;fill:#000000;fill-opacity:1"
           clip-rule="evenodd"
           d="m 158.88,138.72 c 0.557,0.066 0.552,0.641 0.24,0.96 0.07,0.57 0.649,-0.267 0.72,-0.48 0.53,0.03 0.103,1.019 0.24,1.44 -0.943,0.223 -0.605,-0.835 -1.68,-0.48 -0.115,-0.755 0.342,-0.938 0.48,-1.44 z"
           id="path5659" />
        <path
           style="fill-rule:evenodd;fill:#000000;fill-opacity:1"
           clip-rule="evenodd"
           d="m 173.28,180.96 c -1.375,1.288 -5.566,2.858 -6.48,0.479 2.296,0.798 4.191,-1.34 6.48,-0.479 z"
           id="path5661" />
        <path
           style="fill-rule:evenodd;fill:#000000;fill-opacity:1"
           clip-rule="evenodd"
           d="m 175.2,181.92 c -0.716,0.884 -1.51,1.69 -3.12,1.68 -0.441,-1.107 2.521,-3.091 3.12,-1.68 z"
           id="path5663" />
        <path
           style="fill-rule:evenodd;fill:#000000;fill-opacity:1"
           clip-rule="evenodd"
           d="m 168,189.6 c 0.232,-1.033 1.502,-0.655 1.92,0 -0.231,0.943 -1.398,0.182 -1.92,0 z"
           id="path5665" />
        <path
           style="fill-rule:evenodd;fill:#000000;fill-opacity:1"
           clip-rule="evenodd"
           d="m 144,13.68 c 2.878,-0.764 5.232,-6.551 9.6,-5.04 -1.359,4 -5.353,5.367 -7.68,8.4 2.198,0.276 4.254,-1.665 7.44,-1.2 -0.396,3.044 -3.486,3.394 -6,4.32 0.063,1.057 1.424,0.816 2.159,1.2 7.924,4.143 15.035,10.064 21.12,17.04 1.189,1.363 2.907,2.2 4.08,3.6 2.938,3.507 5.65,8.069 8.16,12.24 3.295,5.476 6.256,11.045 8.88,17.521 3.982,9.825 8.275,22.451 6.24,36.479 -0.469,3.231 -0.858,5.642 -3.12,7.681 -1.065,-0.025 -1.408,0.671 -2.64,0.479 -0.328,1.192 -0.57,2.47 -0.96,3.601 -1.21,0.169 -1.195,-0.886 -2.16,-0.961 0.507,1.333 1.209,2.472 1.92,3.601 -0.035,0.524 -0.604,0.516 -1.2,0.479 0.09,1.111 1.04,1.361 1.2,2.4 -1.181,1.087 0.858,5.073 -1.44,6 0.815,2.236 -0.86,3.463 -1.199,5.28 -0.895,0.254 -0.775,-0.506 -1.2,-0.721 0.745,4.238 -2.866,5.623 -4.8,7.921 -1.21,-0.276 -0.764,-0.717 -0.96,-1.921 -0.628,0.894 -0.635,2.406 -1.2,3.36 -1.599,0.313 -2.688,1.742 -3.601,3.36 -1.159,-0.281 -1.654,-1.226 -2.159,-2.16 1.924,-4.382 5.017,-9.38 3.6,-15.601 -0.521,0.681 -0.12,2.28 -0.72,2.881 -2.321,-0.021 -4.341,-2.364 -7.2,-2.641 1.783,-3.531 0.232,-8.025 -2.16,-10.08 0.197,-1.225 1.03,0.391 1.68,0.24 -2.134,-2.905 -4.924,-5.156 -9.6,-5.52 -0.353,5.719 2.93,9.865 4.32,14.64 0.501,0.523 0.685,-0.12 1.439,0 -0.242,0.479 -0.6,0.841 -0.96,1.2 2.301,4.285 5.784,7.701 7.44,12.96 0.291,0.925 0.164,2.126 0.479,3.12 2.177,6.844 0.591,18.001 2.4,26.88 0.532,0.667 1.219,1.181 1.68,1.92 -1.272,3.054 1.605,4.058 1.68,6 0.046,1.177 -1.38,2.597 -2.399,3.6 -3.033,2.985 -6.996,6.035 -8.88,9.601 -5.137,0.064 -10.67,1.381 -15.601,1.68 -0.573,-2.227 -1.379,-4.221 -2.88,-5.52 0.593,-3.18 4.064,-0.777 5.28,0.239 2.471,-0.569 2.639,-3.44 5.52,-3.6 1.111,-1.369 2.172,-2.788 3.12,-4.32 0.151,-0.808 -0.788,-1.75 -0.239,-2.16 0.202,-1.317 2.03,-1.009 2.64,-1.92 3.073,-9.374 1.039,-17.081 -2.88,-25.439 -2.819,-6.013 -3.495,-11.382 -6.24,-16.32 -2.324,-1.355 -3.661,-3.699 -5.76,-5.28 -0.887,0.174 0.748,1.369 -0.48,1.2 -0.11,-1.089 -0.432,-1.969 -0.479,-3.12 -20.069,-1.432 -39.902,0.636 -60.48,0 -0.678,-0.361 -0.788,-1.291 -1.2,-1.92 -3.084,-0.802 -3.375,-6.506 -2.64,-8.64 0.341,-0.99 1.592,-1.688 2.88,-2.641 3.199,-2.365 7.292,-6.561 10.32,-8.64 2.983,-2.048 6.217,-3.601 9.12,-5.04 4.446,-2.206 9.871,-3.202 12.96,-6.48 -1.047,-5.015 -4.862,-8.198 -11.04,-6.72 -3.546,-2.056 -7.78,-5.108 -12.24,-5.76 -5.326,-0.778 -6.332,-5.622 -10.08,-8.16 -0.601,-0.316 -0.751,0.949 -0.96,0.24 -2.838,1.539 -4.994,3.412 -8.16,4.8 -4.065,1.783 -8.716,2.833 -12.24,5.04 0.039,0.281 0.438,0.203 0.72,0.24 -1.89,1.259 -3.227,0.946 -6,0.48 -10.002,-1.681 -20.854,-6.433 -30.96,-8.16 -2.251,2.068 -3.874,4.766 -6.96,6 -0.571,1.909 -1.553,3.407 -1.92,5.52 -1.004,1.076 -2.789,1.372 -3.6,2.64 -1.288,-3.303 2.033,-6.116 2.64,-9.12 -5.578,-0.26 -8.875,6.274 -15.12,4.56 -0.041,-2.441 2.988,-1.812 4.32,-2.88 -1.594,0.038 -4.222,-0.438 -6.24,-0.72 0.952,-3.219 8.527,-2.003 11.28,-3.6 3.38,-2.459 8.282,-3.398 10.08,-7.44 4.978,-5.461 13.228,-0.239 22.8,0.48 1.84,0.138 3.48,0.008 5.04,0.24 3.284,0.488 7.161,2.302 10.08,1.92 1.656,-0.217 2.253,-1.513 3.6,-2.4 2.91,-1.916 6.416,-2.61 9.36,-4.56 0.661,0.459 1.259,0.981 1.92,1.44 0.546,-0.332 -1.034,-0.547 -0.48,-1.68 1.289,0.071 2.466,0.254 2.88,1.2 -0.023,0.937 -1.171,0.749 -1.2,1.68 3.116,1.06 3.716,-2.106 4.32,-4.32 -1.42,0.299 -6.751,2.909 -7.44,-0.72 -0.47,-0.291 -1.687,0.7 -2.64,0 -0.501,-1.517 -0.928,-3.108 -0.72,-4.8 0.116,-0.94 0.822,-1.584 0.72,-2.4 -0.22,-1.758 -1.883,-1.67 -2.4,-3.36 -0.029,-1.069 0.592,-1.488 0.72,-2.4 -0.371,-1.621 -1.053,-2.936 -0.24,-4.56 -0.614,-1.466 -2.132,-4.046 -0.96,-5.76 1.048,-0.008 1.417,0.663 2.4,0.72 3.397,-3.231 8.096,-5.047 12.72,-4.56 5.914,0.624 10.303,7.638 9.36,15.12 1.403,0.551 3.117,2.008 4.8,0.96 3.397,-2.117 8.652,-9.345 8.88,-15.84 0.194,-5.553 -2.665,-9.805 -5.761,-12.96 -3.754,0.155 -4.933,-4.18 -8.399,-2.16 -0.711,-2.357 2.033,-4.48 4.56,-3.6 0.729,-1.831 4.333,-2.895 5.04,-0.96 -0.2,1.182 -1.514,-0.09 -2.16,0 -1.589,0.302 -1.335,1.497 -2.16,2.16 -1.743,-0.312 -3.656,-0.394 -4.56,0.72 1.194,0.059 2.88,-0.326 4.8,0 0.422,0.378 0.314,1.285 0.72,1.68 1.144,-0.216 0.866,-1.854 1.68,-2.4 1.664,1.587 4.94,-0.187 7.92,0.479 -1.249,-0.511 -3.018,-0.502 -4.8,-0.479 -0.489,-1.127 0.465,-2.491 -0.72,-3.12 6.066,-2.774 14.873,-0.53 19.68,2.16 -0.493,-2.146 -1.452,-3.828 -2.64,-5.28 -1.274,0.062 -1.594,0.779 -2.641,0 -0.404,-3.646 2.657,-2.767 5.521,-3.12 1.842,-0.227 2.774,-0.954 3.84,-0.72 1.078,0.237 1.656,1.528 2.399,1.68 0.835,-0.157 2.003,-0.882 2.881,-0.24 0.547,-3.286 1.009,-4.775 0,-7.68 3.57,-0.913 4.145,3.202 5.039,5.76 2.593,-3.888 3.64,-9.321 7.2,-12.24 0.575,1.395 -0.038,5.272 -0.479,7.2 2.01,-1.111 3.739,-4.58 6.72,-5.52 0.507,5.556 -4.356,7.8 -6.96,11.042 z m 21.84,181.2 c 0.099,-0.302 0.31,-0.491 0.72,-0.48 2.216,-5.225 8.392,-6.488 11.04,-11.28 -0.765,-1.364 -3.165,-2.664 -1.92,-4.56 0.071,-0.631 -0.931,-0.188 -0.72,-0.96 0.098,-0.543 1.406,0.127 0.96,-0.96 -0.085,-0.635 -1.223,-0.217 -1.439,-0.72 -1.885,-7.967 -1.127,-17.156 -2.16,-25.44 -0.84,-6.729 -4.273,-11.911 -7.2,-16.08 0.012,1.194 0.955,2.716 0.24,3.84 -0.309,-0.412 -1.436,-0.005 -1.44,-0.72 -0.099,-1.139 -0.002,-2.082 0.48,-2.64 -1.378,-4.862 -3.529,-8.951 -4.801,-13.92 -4.067,-3.538 -9.756,-3.422 -12.239,1.439 0.429,2.771 2.609,3.79 4.08,5.521 -0.249,0.631 -0.952,0.808 -1.2,1.439 1.17,4.67 5.392,6.288 8.16,9.36 0.07,0.631 -0.932,0.188 -0.721,0.96 2.634,4.479 3.082,10.181 5.521,15.12 2.267,4.591 3.726,7.475 4.319,12.479 0.518,4.357 0.455,10.576 -1.92,12.96 0.21,0.595 0.469,1.861 0,2.4 0.632,0.249 1.566,0.193 1.44,1.2 -1.111,0.468 -2.232,-0.907 -3.6,-0.96 -0.126,1.166 1.021,1.06 0.96,2.159 -1.051,0.79 -1.803,1.879 -2.4,3.12 2.395,0.567 6.229,0.97 6.24,3.12 -1.581,-0.287 -3.196,-2.543 -6.24,-2.16 -0.349,0.309 0.688,1.229 -0.48,1.44 -1.557,0.197 -1.861,-0.858 -3.359,-0.72 -0.974,1.106 -1.731,2.429 -3.36,2.88 -0.145,0.849 1.14,1.493 0,1.92 -1.887,-0.193 -1.754,-2.406 -3.359,-2.88 0.841,1.078 0.812,3.028 1.68,4.08 3.899,-0.952 7.864,-1.512 12.718,-0.957 z m -18.48,-108 c 0.712,-1.608 1.932,-2.708 2.88,-4.08 -1.78,-1.044 -3.273,-3.105 -4.8,-5.04 -3.3,-0.541 -5.289,-2.392 -7.921,-3.6 -0.075,-0.325 -0.341,-0.458 -0.239,-0.96 -5.415,-1.865 -7.826,-6.735 -12.721,-9.12 -3.043,0.227 -7.193,0.588 -9.6,2.16 -0.545,-0.175 -0.718,-0.722 -0.96,-1.2 0.463,-0.658 1.18,-1.06 1.68,-1.68 7.404,-2.676 14.337,-5.823 20.4,-9.84 1.888,-5.288 1.902,-12.801 1.92,-19.44 0.007,-2.558 -0.494,-5.218 1.2,-6.96 0.054,3.22 0.112,2.03 0.72,0.24 0.679,-0.369 1.109,0.514 2.16,0 3.976,3.24 7.956,7.606 11.52,12 8.475,10.447 15.449,20.148 20.641,33.36 0.985,2.507 1.371,5.427 3.12,7.68 -5.507,-23.054 -19.375,-39.825 -35.04,-53.52 -0.132,-0.349 0.28,-1.24 -0.24,-1.2 -1.138,1.766 -3.855,1.043 -5.04,-0.24 0.929,-0.631 2.159,0.141 2.88,0.48 3.171,-0.558 2.842,-4.853 5.28,-6.24 2.105,-1.198 4.877,-0.387 6.24,-2.88 -2.257,0.704 -4.824,1.097 -6.96,1.92 -0.037,-0.764 -0.545,-1.056 -0.48,-1.92 3.189,-1.93 5.768,-4.473 7.92,-7.44 -3.634,1.166 -5.077,4.522 -8.4,6 0.071,-0.631 -0.931,-0.189 -0.72,-0.96 1.671,-3.85 6.85,-5.47 6.72,-10.32 -3.278,2.641 -5.364,6.476 -8.159,9.6 -0.352,-0.529 -1.901,0.141 -1.92,-0.72 0.309,-0.331 1.042,-0.237 1.68,-0.24 0.683,-3.123 3.188,-6.28 2.399,-9.36 -1.588,2.142 -2.557,5.164 -3.84,7.92 -0.996,2.142 -2.763,3.859 -2.64,6 2.229,0.199 4.449,2.326 3.12,4.56 0.377,0.023 0.832,-0.032 0.72,0.48 -1.28,-0.557 -0.64,0.564 -1.92,0.48 0.136,-0.597 1.2,-1.501 0.48,-2.16 0.073,0.291 -0.693,0.827 -0.721,0.24 -0.114,-0.755 0.342,-0.938 0.48,-1.44 -0.754,-0.118 -0.634,0.827 -1.2,0.24 -0.066,-0.421 0.676,-1.198 0,-1.44 -0.16,1.425 -0.617,-0.087 -1.68,0.24 -1.256,-2.571 0.671,-7.712 -2.16,-9.6 0.628,2.965 -0.487,7.649 -1.44,10.56 1.002,1.501 1.773,4.436 2.16,5.76 -0.964,0.844 -1.166,-0.611 -1.92,-0.72 -1.566,3.032 -0.6,6.139 -0.96,9.36 -0.646,5.776 -3.638,10.293 -2.88,16.32 0.935,-0.123 1.359,1.504 0.96,1.92 -1.362,-0.97 -1.282,0.554 -2.4,0 -0.372,-1.013 1.333,0.052 0.96,-0.96 -0.344,-0.716 0.196,-0.816 -0.239,-1.44 -3.539,-0.382 -5.479,1.359 -8.4,2.64 -1.925,0.844 -4.301,2.414 -5.76,2.64 -3.521,0.547 -5.482,-1.264 -7.92,-0.48 -2.978,0.958 -4.81,4.477 -6.72,6.24 -1.69,-0.586 -0.174,-2.438 0.48,-2.88 -2.489,1.353 -5.527,0.673 -7.92,-0.48 0.028,-1.172 -0.129,-2.529 0.24,-3.36 -1.794,1.646 -1.039,5.841 -1.92,8.4 1.027,-0.492 0.765,-2.275 1.68,-2.88 -0.531,1.709 -0.909,3.571 -1.44,5.28 -2.466,0.254 -2.27,3.17 -2.64,5.52 0.965,0.582 4.062,-1.453 4.08,0.96 -0.372,0.429 -1.441,0.16 -1.68,0.72 0.437,1.083 1.422,1.618 2.16,2.4 0.26,-0.615 -0.729,-1.144 0,-1.44 0.833,3.808 4.116,5.164 6,7.92 0.93,1.07 4.041,-0.04 4.32,1.68 -4.034,0.273 -4.937,-2.583 -7.44,-3.84 0.013,2.697 -2.556,1.156 -4.08,0.96 0.636,2.022 2.814,4.533 6.48,4.32 1.419,1.79 3.757,1.976 6.48,3.12 3.907,1.641 5.738,3.748 10.56,2.4 1.049,2.711 6.095,1.425 6.72,4.56 -0.73,0.326 -1.638,-0.895 -1.68,0.24 1.399,0.841 2.22,2.26 3.36,3.36 3.7,0.859 8.653,2.546 13.199,3.36 0.575,0.095 -0.133,-1.093 0.721,-0.72 5.795,0.685 12.138,0.822 18.72,0.72 0.17,-0.412 -0.423,-0.235 -0.48,-0.24 -3.599,-0.32 -6.213,0.052 -9.84,-0.24 -5.096,-0.41 -9.441,-1.048 -14.64,-1.92 -3.516,-0.59 -9.99,-1.61 -7.68,-3.12 -0.345,-0.376 -1.251,-0.189 -1.2,-0.96 4.397,-0.345 7.399,1.446 12.24,1.2 0.854,-4.188 3.867,-7.22 3.359,-12 1.902,4.168 -2.197,7.854 -2.64,12 1.075,-0.285 0.329,-2.391 1.439,-2.64 0.106,0.454 -0.326,1.446 0.48,1.2 3.877,-2.203 8.731,-4.708 11.04,-7.68 -0.038,0.279 -0.378,0.261 -0.718,0.24 z M 132.24,17.04 c -0.066,-0.421 0.676,-1.198 0,-1.44 -0.953,0.062 -1.515,0.546 -2.641,0.96 -1.203,-0.545 -3.62,-3.405 -5.52,-1.44 0.618,0.421 1.153,-0.25 1.439,0.72 0.149,1.801 -1.055,0.876 -2.159,1.2 0.514,-2.463 -4.238,-3.002 -4.561,-0.48 2.669,-0.24 4.639,2.003 7.44,2.4 -0.035,0.284 -0.428,0.544 0,0.72 -0.211,-0.495 0.791,-0.909 0.72,-0.48 -0.599,1.242 -1.266,2.414 -2.16,3.36 0.532,7.158 -1.872,13.507 -2.88,17.52 -2.549,1.149 -2.048,4.312 -4.8,5.52 -0.054,0.454 0.271,0.529 0.24,0.96 -0.315,0.308 -0.885,0.308 -1.2,0 0.443,1.639 -0.818,0.858 -1.2,1.2 0.492,0.743 -0.775,1.776 -1.92,1.68 -0.226,2.515 -2.553,2.109 -3.6,3.36 1.323,0.201 3.292,1.022 4.56,0.48 -0.704,-0.204 0.312,-0.604 0,-1.2 5.706,-5.906 11.365,-12.298 12.24,-22.8 0.284,-3.414 -0.407,-6.163 1.68,-7.68 -0.148,-0.651 0.305,-1.905 -0.24,-2.16 -0.5,1.66 -1.102,3.218 -2.16,4.32 -0.037,-1.749 1.399,-4.018 2.641,-5.28 -0.035,0.284 -0.428,0.544 0,0.72 1.182,-1.352 2.28,0.49 3.359,0.72 -0.168,-0.739 -0.168,-0.461 0,-1.2 -3.756,1.158 -1.282,-4.269 0.722,-1.68 z m -12,6.24 c 1.186,0.637 2.302,1.93 3.359,1.44 -2.488,-2.392 -7.308,-3.731 -11.279,-3.84 2.887,0.443 5.894,1.313 7.92,2.4 z M 132,24 c -0.452,0.496 -1.247,0.276 -1.44,0.48 0.558,0.163 0.643,0.797 1.2,0.96 0.739,-1.174 0.815,-4.761 0.24,-4.56 0.424,1.152 -0.054,1.758 0,3.12 z m 12.72,-1.92 c 0.498,0.542 1.785,0.295 2.4,0.72 15.025,7.833 26.086,20.698 35.04,35.04 7.035,11.269 13.291,24.023 14.399,40.56 0.207,3.083 0.272,6.948 -0.96,8.4 1.323,0.197 0.488,2.552 0.721,3.84 -0.641,0 -1.28,0 -1.92,0 1.089,0.628 0.407,1.752 1.199,2.399 1.281,-2.022 1.717,-5.37 1.92,-7.92 0.421,-5.271 -0.225,-10.124 -1.199,-14.88 -1.763,-8.596 -4.434,-15.867 -8.16,-23.28 -9.415,-18.726 -23.042,-37.555 -42.24,-45.12 -0.383,-0.177 0.055,-1.175 -0.72,-0.96 0.179,0.74 -0.659,0.462 -0.48,1.201 z m -16.08,1.44 c 0.062,-0.562 1.055,-0.138 1.2,0 -0.157,-0.882 -0.885,-1.195 -1.439,-1.68 -0.567,0.696 -0.392,1.153 0.239,1.68 z m -6,8.88 c -1.662,-3.778 -5.796,-6.363 -9.84,-6.96 4.41,1.19 7.179,4.02 9.84,6.96 z m 8.64,-4.32 c -0.149,-0.651 0.305,-1.905 -0.24,-2.16 -0.478,0.549 -0.096,1.692 0.24,2.16 z m -21.6,0 c -0.895,-0.471 -2.278,-1.714 -3.359,-1.2 1.065,0.299 2.408,1.583 3.359,1.2 z m -1.44,14.88 c -0.716,5.202 -4.074,10.161 -6.48,13.2 1.763,-0.958 3.138,-2.302 5.28,-2.88 0.138,-0.422 -0.29,-1.41 0.24,-1.44 0.878,0.052 0.921,0.33 1.68,0 0.049,-1.009 -0.912,-1.008 -0.96,-1.92 0.899,-0.301 0.427,-1.973 1.44,-2.16 -0.552,-0.188 -0.233,-1.486 0.479,-1.2 0.409,-2.595 -0.43,-4.793 0.48,-6.96 -1.188,-0.787 -0.68,-2.707 -1.92,-3.84 0.003,-0.477 0.654,-0.306 0.479,-0.96 -0.933,-0.434 -2.056,-1.521 -1.2,-2.64 -1.521,-0.642 -2.453,-3.144 -4.08,-2.88 3.021,3.214 5.378,7.752 4.562,13.68 z m 10.56,-1.44 c 1.071,-2.177 -0.854,-5.034 -2.16,-6.96 -1.472,-2.171 -3.625,-4.177 -5.52,-5.28 -0.003,-0.242 -0.421,-0.302 -0.48,0 3.87,2.93 7.144,6.456 8.16,12.24 z m 8.64,6.48 c 0.804,-5.585 3.96,-10.671 3.359,-16.56 -0.668,5.971 -2.777,10.503 -3.359,16.56 z m 11.28,-11.04 c 1.973,2.579 5.275,7.088 7.44,11.04 1.504,2.745 4.752,7.958 2.16,9.84 -2.699,-1.217 -6.801,-0.812 -8.88,0.72 3.029,-1.325 7.396,-1.025 10.319,0.24 -0.031,1.409 -0.868,2.012 -1.439,2.88 0.756,0.116 0.543,-0.737 1.439,-0.48 2.907,3.333 2.058,10.423 4.561,14.16 -0.701,-5.059 -2.193,-9.327 -3.36,-13.92 -0.456,-0.379 -2.056,-1.228 -0.72,-1.92 2.443,2.271 2.593,6.25 3.6,10.08 1.315,5 3.197,10.883 2.88,15.84 0.509,0.872 1.368,2.057 0.721,3.36 1.224,-0.376 1.122,-2.077 1.68,-3.12 -0.236,-0.804 -1.038,-1.042 -1.2,-1.92 -0.031,-2.265 -0.495,-4.232 -0.72,-5.76 -1.963,-13.364 -6.24,-23.567 -11.521,-33.12 -2.016,-3.648 -6.012,-7.651 -6.72,-11.52 -0.069,1.663 -0.197,1.844 -0.24,3.6 z m -47.04,14.4 c 0.676,-0.379 0.48,0.839 0.72,-0.24 0.444,-1.999 -2.447,-5.287 -3.6,-6.24 -5.493,-4.541 -13.67,-2.379 -17.28,2.88 -0.769,-0.111 -0.846,-0.914 -1.68,-0.96 -0.234,1.433 0.772,2.085 1.44,1.92 -1.664,2.944 0.894,6.01 -0.72,8.64 0.557,0.883 1.047,1.833 2.16,2.16 0.004,-0.715 -0.022,-1.462 0.72,-1.44 0,0.56 0,1.12 0,1.68 1.547,1.493 5.875,0.206 6.24,2.88 -1.684,-0.564 -0.774,1.466 -1.68,1.68 -2.894,0.094 -2.434,-3.166 -4.8,-3.6 -0.86,1.711 -1.267,4.391 -0.48,6.48 1.442,0.243 1.727,-0.673 2.88,-0.72 0.741,0.869 -0.693,1.243 0,2.16 0.907,0.293 2.557,0.853 3.6,0.24 -1.283,-1.197 -3.069,-1.891 -4.08,-3.36 -0.951,-0.372 -1.467,0.908 -1.92,0.24 0.211,-0.589 0.216,-1.384 0.96,-1.44 0.33,0.011 0.527,-0.113 0.72,-0.24 1.808,2.465 5.765,3.402 8.16,4.56 0.323,1.688 -1.4,2.592 -0.72,3.84 0.608,-0.992 1.93,-1.27 3.36,-1.44 1.582,-1.566 2.393,-4.415 0.96,-6.48 4.311,-0.809 3.266,-6.974 4.56,-10.8 -2.047,0.758 -3.916,5.249 -6.48,3.12 3.027,-0.384 5.296,-4.587 6.96,-5.52 z m 38.16,11.76 c -3.299,0.089 -3.517,-1.953 -5.28,-1.92 -0.304,0.792 1.12,1.915 2.16,2.16 1.199,-0.138 6.9,1.531 7.681,-1.44 -1.543,0.331 -2.917,1.156 -4.561,1.2 z M 77.76,62.88 c -0.449,-0.351 -0.283,-1.317 -1.2,-1.2 -0.818,0.685 0.538,2.041 1.2,1.2 z m 68.16,4.56 c 0.067,3.285 -1.351,5.842 -4.56,6.72 -1.175,0.054 -1.509,-0.732 -2.641,-0.72 1.677,2.487 5.299,1.925 7.681,3.36 1.995,1.203 2.823,3.569 4.56,4.8 1.007,-0.127 1.341,0.419 2.16,0.48 0.527,0.433 0.187,1.733 1.2,1.68 -0.521,-6.129 -3.701,-8.129 -7.44,-11.04 -0.679,-0.042 -1.646,0.206 -1.68,-0.48 1.14,-2.86 1.251,-8.027 2.16,-10.32 -2.652,0.886 -1.485,3.353 -1.44,5.52 z m 23.52,8.64 c -1.354,-4.566 -2.999,-8.841 -5.04,-12.72 -0.014,-0.252 -0.308,-0.188 -0.24,0.24 2.256,3.664 3.131,8.709 5.28,12.48 z m -38.88,-10.8 c 3.427,0.811 8.022,0.5 10.32,-1.2 -3.086,0.867 -7.264,0.98 -10.32,1.2 z m 13.92,0.96 c 0,-0.479 0,-0.96 0,-1.44 -0.24,0 -0.48,0 -0.721,0 0.122,0.599 0.455,0.986 0.721,1.44 z m 20.16,6 c -0.578,-2.381 -1.289,-4.631 -2.399,-6.479 0.691,2.267 1.407,4.51 2.399,6.479 z m -26.88,-5.52 c 1.053,0.012 2.248,0.167 2.4,-0.72 -0.966,0.074 -2.204,-0.124 -2.4,0.72 z m 21.12,12.48 c -0.949,-4.863 -1.086,-9.134 -2.88,-12.96 1.257,4.023 1.546,9.014 2.88,12.96 z m -14.4,-9.36 c -0.104,-0.786 0.242,-3.269 -0.24,-2.88 0.146,0.896 -0.226,3.465 0,2.88 0.08,0 0.16,0 0.24,0 z m 16.08,15.12 c 1.526,3.833 -5.98,5.902 -3.359,10.56 1.248,2.218 4.179,0.521 5.28,-0.96 1.881,-2.53 2.92,-6.197 5.279,-8.64 0.902,-0.935 2.113,-1.08 2.641,-2.4 -0.257,-0.784 -1.311,-0.77 -1.681,-1.44 0.578,-4.778 -2.478,-9.973 -4.08,-14.16 0.982,4.539 3.891,8.429 3.601,13.44 -1.922,0.008 -1.363,-2.605 -1.681,-3.84 -0.479,-1.868 -1.389,-3.678 -1.92,-5.04 0.354,2.881 2.545,6.367 1.44,9.12 -1.923,-0.638 -1.115,-4.005 -2.16,-5.52 -0.394,-0.723 0.092,1.362 0.24,2.4 0.186,1.295 0.995,2.844 -0.24,3.12 -1.515,-0.303 -0.961,-1.888 -1.2,-2.88 -0.916,-3.802 -1.88,-8.406 -3.12,-11.76 0.314,5.88 5.632,13.748 0.96,18 z m 1.92,-13.92 c -0.115,-1.166 -0.429,-2.132 -0.961,-2.88 0.365,0.916 0.282,2.279 0.961,2.88 z m 18.48,8.88 c -1.002,-4.358 -2.293,-8.427 -4.32,-11.76 1.265,4.094 2.771,7.949 4.32,11.76 z m -2.4,-10.32 c 1.456,2.314 2.487,5.889 3.36,8.64 0.293,0.922 0.292,2.233 1.2,2.4 -1.312,-4.208 -2.299,-8.741 -4.561,-12 0.001,0.32 0.001,0.64 0.001,0.96 z m 9.36,16.56 c -1.538,-6.302 -3.268,-12.413 -6,-17.52 1.815,6.025 3.908,11.772 6,17.52 z m -8.88,-6.24 c -0.433,-3.568 -2.12,-7.959 -3.84,-11.04 1.189,3.771 2.16,7.759 3.84,11.04 z m 11.28,9.36 c -1.05,-6.43 -3.231,-13.426 -5.521,-18.24 -0.32,-0.674 -0.325,-1.856 -1.2,-1.92 3.159,5.802 4.374,13.547 6.721,20.16 z m -6.96,-12 c -0.136,-1.323 -1.455,-6.852 -2.88,-7.68 0.99,2.53 2.028,5.012 2.88,7.68 z M 140.4,72.24 c -0.849,-0.191 -0.679,-1.401 -1.44,-1.68 0.312,0.578 0.749,2.276 1.44,1.68 z m 20.4,7.2 c -0.339,-3.261 -0.855,-6.344 -1.92,-8.88 0.638,2.962 0.985,6.214 1.92,8.88 z m -75.36,-4.8 c -1.49,-0.003 -0.981,-1.377 -1.2,-2.16 -1.283,0.016 -1.508,1.646 -2.64,0.48 0.042,0.843 -0.811,0.79 -0.96,1.44 1.001,0.041 1.184,-0.736 2.16,-0.72 0.842,0.206 1.814,1.535 2.64,0.96 z m -42.72,1.44 c -4.586,-0.737 -8.648,-2.464 -12,-2.64 -6.397,-0.335 -7.763,6.255 -12.48,7.92 -4.244,1.402 -8.692,3.725 -13.68,3.6 1.557,1.805 5.522,-0.399 6.96,0.72 -1.374,1.507 -3.433,2.327 -5.52,3.12 3.57,-0.029 5.332,-1.868 7.92,-2.88 0.312,-0.596 -0.704,-0.996 0,-1.2 1.776,-0.388 4.715,-1.764 6.24,-0.24 -0.115,2.781 -2.843,5.455 -2.16,7.44 2.461,-1.378 2.531,-5.149 4.08,-7.44 4.867,-0.894 4.981,-7.818 10.56,-7.2 -0.559,0.961 -2.766,0.274 -2.88,1.68 11.608,2.467 23.746,6.713 35.04,7.92 0.695,-0.265 0.912,-1.008 1.44,-1.44 3.153,-1.566 7.283,-2.157 10.08,-4.08 -1.438,-0.25 -0.956,-2.27 -1.2,-3.12 -1.784,-0.856 -2.58,-2.7 -4.08,-3.84 -4.099,0.396 -5.978,3.767 -9.6,5.28 -3.356,-3.419 -11.99,-2.519 -18.72,-3.6 z m 51.36,0.96 c -0.146,-0.744 -0.916,-2.111 -1.44,-1.68 0.605,0.435 0.682,1.398 1.44,1.68 z m 77.52,1.92 c -0.076,-0.804 -0.247,-1.513 -0.72,-1.92 0.076,0.804 0.247,1.513 0.72,1.92 z m 12.96,1.44 c -0.231,-0.968 -0.442,-1.957 -0.96,-2.64 -0.021,1.221 0.318,2.081 0.96,2.64 z m 3.12,21.36 c -2.699,-0.808 0.044,0.015 0.721,0.96 -0.229,1.135 -0.541,1.095 -0.24,2.399 0.901,0.459 2.295,0.425 2.64,1.44 0.041,0.601 -0.368,0.751 -0.72,0.96 -2.031,0.028 -3.396,-1.881 -5.04,-1.44 2.152,0.728 4.14,1.62 5.76,2.881 -0.118,1.212 -0.227,2.858 1.2,3.119 0.802,-3.316 2.349,-9.075 0.24,-12.959 -0.795,0.486 -0.727,1.833 -1.44,2.4 -0.81,-0.581 -1.068,0.733 -1.92,0 -0.067,-0.73 0.769,-0.933 0.24,-1.44 -4.598,-2.712 -12.633,-2.337 -18.72,-2.88 3.251,-0.349 5.932,-1.268 9.84,-0.96 0.319,0 0.64,0 0.96,0 1.047,0.006 0.04,-0.413 -0.48,-0.24 -2.553,-0.735 -5.075,0.292 -7.2,-0.24 0.817,-0.783 2.705,-0.496 3.601,-1.2 -1.32,-0.762 -2.236,0.477 -3.36,-0.24 0.557,-1.283 3.227,-0.453 4.08,-1.44 -0.858,0.11 -2.598,0.59 -3.359,0 0.945,-0.734 2.555,-0.805 3.6,-1.44 -1.213,-0.082 -3.347,0.892 -3.84,0 0.794,-0.646 2.187,-0.693 3.12,-1.2 -1.458,-0.26 -3.192,1.227 -3.841,0.24 2.827,-2.225 8.265,-3.074 12,-1.2 0.518,-0.814 -0.082,-2.218 -0.479,-2.88 -0.982,2.401 -4.578,1.009 -7.44,1.44 -2.434,0.367 -3.921,2.112 -6,1.92 -1.135,0.82 -2.421,2.65 -3.6,2.64 2.956,-4.805 7.854,-8.697 14.64,-8.88 -2.984,-0.981 -6.41,0.947 -8.399,0.96 0.602,-0.679 1.798,-0.762 2.399,-1.44 -0.722,-0.018 -1.742,0.89 -1.92,0 0.944,-0.815 2.623,-0.897 3.601,-1.68 -2.854,0.186 -4.805,1.276 -6,3.12 -5.297,2.707 -7.887,9.39 -10.561,13.92 0.943,0.288 1.804,-0.734 2.4,0 0.172,1.612 -1.633,1.248 -2.4,1.92 2.737,-0.397 6.145,-0.528 7.92,-1.2 -1.529,-0.323 -2.949,0.722 -4.08,0 6.82,-1.198 17.564,-2.047 22.561,1.68 0.063,0.547 -0.061,0.902 -0.484,0.96 z m -45.12,-7.2 c 2.784,0.009 4.938,-1.345 6.96,-2.4 1.937,-1.011 4.46,-1.784 5.521,-3.84 -0.051,-0.269 -0.267,-0.374 -0.48,-0.48 -2.858,3.383 -7.567,4.914 -12.001,6.72 z m -4.8,0.48 c 0.738,-1.033 3.014,0.932 4.08,-0.48 -0.431,0.031 -0.562,-0.238 -0.479,-0.72 2.492,-1.028 6.011,-2.307 7.199,-3.84 -1.755,0.966 -3.938,2.779 -6,2.64 0.81,-1.114 3.25,-1.867 3.36,-2.88 -2.964,1.516 -5.862,3.097 -8.16,5.28 z m 51.84,1.44 c 0.7,0.004 1.42,1.214 1.681,0.24 -0.595,-0.366 -0.429,-1.491 -1.44,-1.44 -0.202,0.279 -0.318,0.643 -0.241,1.2 z m -54,1.44 c -4.21,-0.27 -8.633,-1.606 -12,-1.92 3.483,0.998 8.181,2.058 12,1.92 z m -13.2,3.6 c 0.711,-0.409 0.68,-1.56 1.199,-2.16 -0.895,-1.025 -1.476,-2.363 -2.64,-3.12 0.515,2.256 1.237,2.834 1.441,5.28 z m 29.52,-2.88 c 1.266,0.203 2.344,-0.1 4.08,0 -0.656,-1.253 -3.021,-0.413 -4.08,0 z m 18,0.96 c 3.003,-0.667 7.658,0.111 10.32,-0.24 -3.256,-0.178 -7.622,-1.13 -10.32,0.24 z m -51.12,1.68 c 0.675,-0.285 1.38,-0.54 2.16,-0.72 -0.033,-0.447 -0.158,-0.802 -0.479,-0.96 -0.145,0.825 -1.968,1.22 -1.681,1.68 z m -32.64,19.2 c -1.112,4.616 1.152,7.762 3.36,9.84 14.748,-1.252 29.524,-2.477 37.44,-10.56 1.104,0.371 3.366,0.702 5.04,0 -0.037,-0.918 0.013,-1.748 0.48,-2.16 0.527,1.156 0.69,2.833 -0.48,3.36 -9.76,1.76 -14.915,8.124 -25.92,8.64 -0.32,0 -0.64,0 -0.96,0 5.347,0.619 14.642,0.043 21.84,0.24 3.153,-1.887 8.516,-1.565 9.84,-5.28 1.817,0.903 3.643,1.798 4.561,3.6 -1.625,0.533 -2.505,-1.617 -4.08,-1.92 -0.481,2.799 -4.688,1.873 -6.24,3.601 4.17,0.36 6.922,-0.264 11.04,0.239 1.093,-0.906 1.679,-2.321 2.64,-3.359 -0.643,-1.677 -1.705,-2.935 -2.16,-4.8 -1.128,-0.729 -3.281,0.224 -3.84,0 0.263,-1.324 0.356,-2.448 0.48,-3.36 -0.899,0.62 -0.605,2.435 -0.72,3.84 0.9,0.619 2.77,0.271 2.88,1.68 -0.948,0.012 -0.845,1.076 -1.44,1.44 -1.06,-0.294 -1.589,-1.022 -1.439,-1.92 -1.026,-0.185 -5.204,-3.638 -5.521,-4.8 -0.226,-0.83 -0.096,-3.024 1.44,-3.12 0.81,0.735 -0.434,2.321 0.239,2.88 0.329,-0.791 0.321,-1.919 0.48,-2.88 -1.399,-0.552 -1.376,-1.287 -2.16,-2.16 -2.209,0.671 -0.957,4.803 -2.4,6.24 -0.849,0.129 -1.236,-0.204 -1.439,-0.721 0.547,-1.053 0.698,-2.501 0.96,-3.84 -1.752,-0.312 -0.711,2.169 -2.4,1.92 -0.9,-0.188 0.632,-1.485 -0.479,-1.199 -5.351,1.369 -11.668,3.051 -16.8,3.84 4.451,-2.589 10.741,-3.339 15.84,-5.28 -1.486,0.21 0.651,-1.278 -0.96,-1.44 0.632,0.073 0.787,-0.332 0.72,-0.96 -0.004,-0.396 -0.666,-0.134 -0.72,-0.479 0.604,-3.691 -3.134,-6.846 -6.721,-8.4 0.925,-0.516 2.618,-0.263 3.12,-1.2 -1.533,-0.193 -4.587,1.912 -4.319,0.48 0.133,0.001 0.272,-0.194 0,-0.24 -13.241,2.383 -21.662,11.383 -31.202,18.238 z m 94.56,-17.52 c 0.976,-0.085 2.013,1.014 2.88,0.24 -1.108,-0.12 -2.079,-1.134 -2.88,-0.24 z m -60,0.72 c 0.914,0.113 1.498,-0.102 1.681,-0.72 -0.732,0.069 -1.639,-0.038 -1.681,0.72 z m 3.36,1.92 c 0.073,-0.633 -0.501,-0.619 -0.96,-0.72 -0.241,0.801 0.333,0.787 0.96,0.72 z m 24,3.84 c -0.621,-1.231 -2.435,0.206 -3.84,-0.24 -0.209,-0.761 -2.72,-0.839 -3.84,-1.439 -1.322,5.19 -9.411,0.58 -11.28,-0.24 4.039,4.113 12.749,4.832 18.96,1.919 z m -22.08,0 c 0.32,0 0.64,0 0.96,0 0.189,-0.924 -1.149,-0.924 -0.96,0 z m 22.32,0.24 c 0.85,-0.03 1.365,-0.395 1.92,-0.72 -0.806,0.074 -2.081,-0.321 -1.92,0.72 z m -21.84,1.2 c 0.678,0.198 0.621,-0.339 1.199,-0.24 0,-0.16 0,-0.32 0,-0.48 -0.264,-0.268 -1.431,-0.214 -1.199,0.72 z m 3.12,0.48 c 0.32,0 0.641,0 0.96,0 0.041,-0.601 -0.368,-0.751 -0.72,-0.96 -0.075,0.324 -0.342,0.458 -0.24,0.96 z m -2.88,0.96 c 0.451,0.275 1.91,-0.044 1.92,-0.96 -0.583,-0.407 -2.147,-0.193 -1.92,0.96 z m 3.36,-0.48 c -0.12,0.755 0.523,0.938 0,1.439 0.759,0.039 0.802,-0.638 1.68,-0.479 0,-0.32 0,-0.641 0,-0.96 -0.454,-0.476 -1.134,-0.117 -1.68,0 z m 48.96,3.12 c 0.955,0.13 -0.259,-0.851 0.96,-0.721 3.889,0.511 5.609,3.191 8.64,4.561 -3.501,-3.938 -9.74,-6.419 -16.319,-6.48 2.691,0.429 4.648,1.592 6.719,2.64 z m -52.32,-1.44 c 1.004,-0.276 2.432,-0.129 2.88,-0.96 -0.985,-0.554 -2.48,0.16 -2.88,0.96 z m 31.92,1.2 c 11.013,0.827 16.93,6.75 20.16,15.359 1.124,0.063 -0.312,-0.931 0.72,-0.96 1.113,1.128 1.175,3.307 1.921,4.801 -2.735,-10.466 -9.459,-16.941 -19.921,-19.681 -0.464,-0.255 -0.334,-1.105 -0.72,-1.439 -0.541,0.819 -1.52,1.2 -2.16,1.92 z m -29.52,-0.96 c 0.383,-0.488 -1.868,0.091 -1.92,0.72 0.847,-0.033 1.073,-0.687 1.92,-0.72 z m 26.4,3.6 c -0.301,-0.738 -0.261,-1.818 -0.96,-2.16 0.033,1.008 0.438,1.642 0.96,2.16 z m 2.64,1.44 c -0.204,-1.156 -0.488,-2.232 -1.2,-2.88 0.2,1.161 0.67,2.05 1.2,2.88 z m 25.44,-1.68 c -0.713,-0.177 -1.657,-1.368 -2.159,-0.96 0.712,0.177 1.657,1.369 2.159,0.96 z m -29.28,0.48 c 0.05,-0.689 -0.062,-1.22 -0.48,-1.44 -0.318,0.313 -0.052,1.27 0.48,1.44 z m 2.64,0.96 c -0.089,-1.031 -0.388,-1.852 -0.96,-2.4 0.331,0.79 0.104,2.135 0.96,2.4 z m -21.36,0.72 c 0.188,-0.699 0.693,-2.792 0,-2.88 0.295,1.106 -0.735,2.129 0,2.88 z m 0.72,1.2 c 0.727,-0.232 1.207,-3.003 0.239,-3.36 0.189,1.388 -0.347,2.051 -0.239,3.36 z m 1.44,0.48 c 0.265,-0.417 0.455,-3.057 0,-2.641 0.342,1.076 -0.648,2.056 0,2.641 z m 2.16,-0.24 c 0.196,-0.175 0.644,-1.661 -0.24,-1.44 0.138,0.422 -0.29,1.41 0.24,1.44 z m 6.24,6.24 c -0.479,0.8 -1.258,1.302 -1.44,2.399 1.011,0.51 2.924,0.116 4.32,0.24 0.214,-2.694 -1.593,-3.367 -2.64,-4.8 -0.778,-1.622 -1.242,-3.559 -2.4,-4.8 -0.711,2.987 1.759,4.343 2.16,6.961 z"
           id="path5667" />
        <path
           style="fill-rule:evenodd;fill:#000000;fill-opacity:1"
           clip-rule="evenodd"
           d="m 103.2,63.84 c -0.122,1.158 -0.698,1.862 -0.48,3.36 -1.072,-0.531 -0.022,-2.829 0.48,-3.36 z"
           id="path5669" />
        <path
           style="fill-rule:evenodd;fill:#000000;fill-opacity:1"
           clip-rule="evenodd"
           d="m 79.44,52.32 c -0.647,0.473 -2.097,0.143 -3.12,0.24 0.441,-1.692 -0.155,-3.463 0.24,-4.8 1.477,0.078 2.746,2.348 2.88,4.56 z"
           id="path5671" />
        <path
           style="fill-rule:evenodd;fill:#000000;fill-opacity:1"
           clip-rule="evenodd"
           d="m 106.32,121.68 c -0.703,1.938 -4.112,1.168 -4.801,3.12 -3.071,0.033 -7.082,0.416 -9.839,-0.48 0.938,-1.446 4.242,0.914 4.32,-1.439 2.112,0.244 3.55,-0.084 6,0 0.326,-0.074 0.199,-0.602 0.24,-0.96 1.377,0.09 2.895,-0.939 4.08,-0.241 z"
           id="path5673" />
        <path
           style="fill-rule:evenodd;fill:#000000;fill-opacity:1"
           clip-rule="evenodd"
           d="m 159.6,130.56 c 0.24,0 0.48,0 0.721,0 -0.257,1.826 2.076,4.063 -0.48,5.52 -0.006,-0.833 0.702,-1.716 -0.479,-1.199 -0.13,-1.754 0.867,-2.749 0.238,-4.321 z"
           id="path5675" />
      </g>
    </g>
  </g>
</svg>
